HIERARCHY
ROOT Hips
{
	OFFSET -1.69194 87.34210 -81.38390
	CHANNELS 6 Xposition Yposition Zposition Zrotation Xrotation Yrotation
	JOINT Spine
	{
		OFFSET 0.00000 7.77975 0.00000
		CHANNELS 3 Zrotation Xrotation Yrotation
		JOINT Spine1
		{
			OFFSET -0.00002 22.65660 0.00007
			CHANNELS 3 Zrotation Xrotation Yrotation
			JOINT Neck
			{
				OFFSET 0.00000 24.94690 0.00000
				CHANNELS 3 Zrotation Xrotation Yrotation
				JOINT Head
				{
					OFFSET 0.00000 14.70560 1.89750
					CHANNELS 3 Zrotation Xrotation Yrotation
					End site
					{
						OFFSET 0.00000 0.00000 0.00000
					}
				}
			}
			JOINT LeftShoulder
			{
				OFFSET 3.79250 20.81930 -0.05065
				CHANNELS 3 Zrotation Xrotation Yrotation
				JOINT LeftArm
				{
					OFFSET 12.48180 -0.00001 0.00000
					CHANNELS 3 Zrotation Xrotation Yrotation
					JOINT LeftForeArm
					{
						OFFSET 28.71400 0.00001 0.00065
						CHANNELS 3 Zrotation Xrotation Yrotation
						JOINT LeftHand
						{
							OFFSET 23.41480 0.11657 0.32115
							CHANNELS 3 Zrotation Xrotation Yrotation
							JOINT LeftHandThumb1
							{
								OFFSET 2.04687 -2.32600 3.25639
								CHANNELS 3 Zrotation Xrotation Yrotation
								JOINT LeftHandThumb2
								{
									OFFSET 2.82028 0.00000 1.83932
									CHANNELS 3 Zrotation Xrotation Yrotation
									JOINT LeftHandThumb3
									{
										OFFSET 3.67316 0.00000 0.00000
										CHANNELS 3 Zrotation Xrotation Yrotation
										End site
										{
											OFFSET 0.00000 0.00000 0.00000
										}
									}
								}
							}
							JOINT LeftHandIndex1
							{
								OFFSET 8.37357 0.00000 3.25638
								CHANNELS 3 Zrotation Xrotation Yrotation
								JOINT LeftHandIndex2
								{
									OFFSET 4.85225 0.00000 0.00000
									CHANNELS 3 Zrotation Xrotation Yrotation
									JOINT LeftHandIndex3
									{
										OFFSET 2.42613 0.00000 0.00000
										CHANNELS 3 Zrotation Xrotation Yrotation
										End site
										{
											OFFSET 0.00000 0.00000 0.00000
										}
									}
								}
							}
							JOINT LeftHandMiddle1
							{
								OFFSET 8.37357 0.00000 1.07926
								CHANNELS 3 Zrotation Xrotation Yrotation
								JOINT LeftHandMiddle2
								{
									OFFSET 5.57266 0.00000 0.00000
									CHANNELS 3 Zrotation Xrotation Yrotation
									JOINT LeftHandMiddle3
									{
										OFFSET 3.03963 0.00000 0.00000
										CHANNELS 3 Zrotation Xrotation Yrotation
										End site
										{
											OFFSET 0.00000 0.00000 0.00000
										}
									}
								}
							}
							JOINT LeftHandRing1
							{
								OFFSET 7.90838 0.00000 -1.07926
								CHANNELS 3 Zrotation Xrotation Yrotation
								JOINT LeftHandRing2
								{
									OFFSET 5.51312 0.00000 0.00000
									CHANNELS 3 Zrotation Xrotation Yrotation
									JOINT LeftHandRing3
									{
										OFFSET 2.75656 0.00000 0.00000
										CHANNELS 3 Zrotation Xrotation Yrotation
										End site
										{
											OFFSET 0.00000 0.00000 0.00000
										}
									}
								}
							}
							JOINT LeftHandPinky1
							{
								OFFSET 7.44317 0.00000 -3.25639
								CHANNELS 3 Zrotation Xrotation Yrotation
								JOINT LeftHandPinky2
								{
									OFFSET 4.34662 0.00000 0.00000
									CHANNELS 3 Zrotation Xrotation Yrotation
									JOINT LeftHandPinky3
									{
										OFFSET 2.17331 0.00000 0.00000
										CHANNELS 3 Zrotation Xrotation Yrotation
										End site
										{
											OFFSET 0.00000 0.00000 0.00000
										}
									}
								}
							}
						}
					}
				}
			}
			JOINT RightShoulder
			{
				OFFSET -3.79391 20.81930 -0.05065
				CHANNELS 3 Zrotation Xrotation Yrotation
				JOINT RightArm
				{
					OFFSET -12.48180 0.00000 0.00000
					CHANNELS 3 Zrotation Xrotation Yrotation
					JOINT RightForeArm
					{
						OFFSET -28.71400 -0.00004 0.00012
						CHANNELS 3 Zrotation Xrotation Yrotation
						JOINT RightHand
						{
							OFFSET -23.76070 0.08180 0.14466
							CHANNELS 3 Zrotation Xrotation Yrotation
							JOINT RightHandThumb1
							{
								OFFSET -2.04687 -2.32600 3.25639
								CHANNELS 3 Zrotation Xrotation Yrotation
								JOINT RightHandThumb2
								{
									OFFSET -2.82029 0.00000 1.83932
									CHANNELS 3 Zrotation Xrotation Yrotation
									JOINT RightHandThumb3
									{
										OFFSET -3.67316 0.00000 0.00000
										CHANNELS 3 Zrotation Xrotation Yrotation
										End site
										{
											OFFSET 0.00000 0.00000 0.00000
										}
									}
								}
							}
							JOINT RightHandIndex1
							{
								OFFSET -8.37358 0.00000 3.25638
								CHANNELS 3 Zrotation Xrotation Yrotation
								JOINT RightHandIndex2
								{
									OFFSET -4.85225 0.00000 0.00000
									CHANNELS 3 Zrotation Xrotation Yrotation
									JOINT RightHandIndex3
									{
										OFFSET -2.42613 0.00000 0.00000
										CHANNELS 3 Zrotation Xrotation Yrotation
										End site
										{
											OFFSET 0.00000 0.00000 0.00000
										}
									}
								}
							}
							JOINT RightHandMiddle1
							{
								OFFSET -8.37357 0.00000 1.07926
								CHANNELS 3 Zrotation Xrotation Yrotation
								JOINT RightHandMiddle2
								{
									OFFSET -5.57266 0.00000 0.00000
									CHANNELS 3 Zrotation Xrotation Yrotation
									JOINT RightHandMiddle3
									{
										OFFSET -3.03964 0.00000 0.00000
										CHANNELS 3 Zrotation Xrotation Yrotation
										End site
										{
											OFFSET 0.00000 0.00000 0.00000
										}
									}
								}
							}
							JOINT RightHandRing1
							{
								OFFSET -7.90838 0.00000 -1.07926
								CHANNELS 3 Zrotation Xrotation Yrotation
								JOINT RightHandRing2
								{
									OFFSET -5.51312 0.00000 0.00000
									CHANNELS 3 Zrotation Xrotation Yrotation
									JOINT RightHandRing3
									{
										OFFSET -2.75656 0.00000 0.00000
										CHANNELS 3 Zrotation Xrotation Yrotation
										End site
										{
											OFFSET 0.00000 0.00000 0.00000
										}
									}
								}
							}
							JOINT RightHandPinky1
							{
								OFFSET -7.44318 0.00000 -3.25640
								CHANNELS 3 Zrotation Xrotation Yrotation
								JOINT RightHandPinky2
								{
									OFFSET -4.34662 0.00000 0.00000
									CHANNELS 3 Zrotation Xrotation Yrotation
									JOINT RightHandPinky3
									{
										OFFSET -2.17330 0.00000 0.00000
										CHANNELS 3 Zrotation Xrotation Yrotation
										End site
										{
											OFFSET 0.00000 0.00000 0.00000
										}
									}
								}
							}
						}
					}
				}
			}
		}
	}
	JOINT LeftUpLeg
	{
		OFFSET 9.48751 0.00000 0.00000
		CHANNELS 3 Zrotation Xrotation Yrotation
		JOINT LeftLeg
		{
			OFFSET 0.00002 -35.71600 -0.00019
			CHANNELS 3 Zrotation Xrotation Yrotation
			JOINT LeftFoot
			{
				OFFSET 0.05770 -40.85830 0.04629
				CHANNELS 3 Zrotation Xrotation Yrotation
				JOINT LeftToeBase
				{
					OFFSET 0.00000 -6.16687 14.23120
					CHANNELS 3 Zrotation Xrotation Yrotation
					End site
					{
						OFFSET 0.00000 0.00000 0.00000
					}
				}
			}
		}
	}
	JOINT RightUpLeg
	{
		OFFSET -9.48751 0.00000 0.00000
		CHANNELS 3 Zrotation Xrotation Yrotation
		JOINT RightLeg
		{
			OFFSET -0.00003 -35.71600 -0.00022
			CHANNELS 3 Zrotation Xrotation Yrotation
			JOINT RightFoot
			{
				OFFSET 0.27801 -40.38490 0.04977
				CHANNELS 3 Zrotation Xrotation Yrotation
				JOINT RightToeBase
				{
					OFFSET 0.00000 -6.16687 14.23120
					CHANNELS 3 Zrotation Xrotation Yrotation
					End site
					{
						OFFSET 0.00000 0.00000 0.00000
					}
				}
			}
		}
	}
}
MOTION
Frames: 6
Frame Time: 0.050000
2.8623618232581638e-12 97.9791030883789 -4.255472710323893e-12 1.1892095253051675 -7.72566179400776 0.2365520083459574 0.2261333919361964 6.36765244712589 -6.949210283312253 1.8630448865168718 12.82659773418164 -13.936488853834827 0.3117465775714134 3.4016668423794543 0.18895203299695262 -2.09149804428632 -11.478630120872769 -36.4250198405684 -1.9270156175046655 -0.06446639090373288 4.5489048710863775 -65.35860449684266 23.8635936126041 24.064131086085553 -3.375162017118976 7.288551658281034 -80.61210923379699 11.221034950797668 0.12615946725661695 29.97288762029459 -15.9914 4.213524 -13.04145 -1e-06 -0.0 14.67867 0.0 0.0 44.48403 -38.20135 2.359717 11.8338 -41.12209 0.0 0.0 -41.12209 0.0 0.0 1.607976 -0.081748 -0.054387 -5.005416 0.0 0.0 -5.003379 0.0 0.0 1.577437 1.378345 4.165629 -5.010535 0.0 0.0 -5.010535 0.0 0.0 0.399872 2.558528 8.254551 -5.997952 0.0 0.0 -5.996794 0.0 0.0 2.6528270203251023 -0.4723310831187724 0.5493490485111079 81.20017021183719 -21.2300806004856 38.40889411553136 20.250267700281455 -5.906873287940252 62.10618419771879 7.255714150936967 -19.843751566845164 16.2715619953566 9.614134 -4.896591 22.12875 0.0 0.0 3.231176 0.0 0.0 -26.57245 43.9976 2.163135 -12.06773 46.33478 0.0 0.0 46.32685 0.0 0.0 55.90439 1.784505 -1.571804 56.82001 0.0 0.0 56.82001 0.0 0.0 55.14419 -2.290141 -1.147244 56.19355 0.0 0.0 56.1975 0.0 0.0 55.49405 -4.166969 -0.018178 56.67761 0.0 0.0 56.67761 0.0 0.0 5.479382059491361 8.186586481777148 26.240509367886784 -1.0733345278229953 5.742191555906335 9.167044928091887 -4.124005075935957 -0.10640714342358397 -8.475124556373244 0.0027497134943438354 0.1393780367621028 0.011508385808694153 -2.133849044960817 0.40441345838436715 8.125516150862492 -1.201473351203825 12.843824340663778 -18.664068787708636 5.485724846037558 -5.5471524181302785 16.290416605281877 0.003996876749032952 0.16204946216364335 0.0006424423528199513
1.8000742103262173 98.00982666015625 -0.11621406852725219 4.110797553171382 -4.63052753478099 1.3387761027455831 0.2387621328697165 5.010077004737141 -6.269355480165802 1.2325805558724612 9.686973839476146 -12.766421622956807 0.2986052212452083 4.236461066342735 -0.03386341253757763 -3.5173321306065475 -9.474635110294095 -35.50492779816127 -2.614460212362494 -0.47141115357637 4.645427610658285 -63.093676328307566 24.575128603860808 24.256910659332995 -2.756722422566246 6.412374370956489 -74.81568475447729 7.053312430721602 -2.1155810943553433 25.926870123759247 -15.9914 4.213524 -13.04145 -1e-06 -0.0 14.67867 0.0 0.0 44.48403 -38.20135 2.359717 11.8338 -41.12209 0.0 0.0 -41.12209 0.0 0.0 1.607976 -0.081748 -0.054387 -5.005416 0.0 0.0 -5.003379 0.0 0.0 1.577437 1.378345 4.165629 -5.010535 0.0 0.0 -5.010535 0.0 0.0 0.399872 2.558528 8.254551 -5.997952 0.0 0.0 -5.996794 0.0 0.0 2.0999975646474143 -0.658390094478261 -2.3792670420905906 80.73049379226337 -19.120737760378056 34.89014675689014 23.7990711964552 -6.525809079604652 66.91692629297775 7.157582691966327 -22.672069363920244 12.94696552461553 9.614134 -4.896591 22.12875 0.0 0.0 3.231176 0.0 0.0 -26.57245 43.9976 2.163135 -12.06773 46.33478 0.0 0.0 46.32685 0.0 0.0 55.90439 1.784505 -1.571804 56.82001 0.0 0.0 56.82001 0.0 0.0 55.14419 -2.290141 -1.147244 56.19355 0.0 0.0 56.1975 0.0 0.0 55.49405 -4.166969 -0.018178 56.67761 0.0 0.0 56.67761 0.0 0.0 -0.9225067082552567 7.156340736137445 25.60544358526272 -1.2628296738550544 1.7950729069706837 8.97940762795477 -2.2460087090937697 0.5038771948139802 -6.278181041322547 0.0010697240344216326 0.14177680748048643 0.004404306520358566 -4.490598807612547 2.6506684058711123 12.954144294094426 -2.2633146448403947 9.119065377815508 -18.80784167984984 4.64706772561629 -5.878503919191128 16.21938311899224 0.0014876035260902878 0.16464267089112264 -4.037053695467596e-05
2.0502778577447742 97.84039306640625 0.05004031836067155 5.128751909399268 -4.702563380820445 2.3591588802808414 0.6589029952214573 4.8664054813859305 -6.671833426315551 2.0065009471751556 9.66518984560207 -13.547238837680851 -0.052847966330358175 4.74562953053002 0.06924400992364861 -6.235595924694755 -7.074631325194519 -33.45643673326292 -2.968176670315139 -0.6179232878706081 3.775544786017253 -62.409118240550605 26.11648314737856 26.114262552629807 -4.92941423175062 6.899054127217433 -77.09472512071747 2.041788175557283 -1.4815359567562842 24.089827159618345 -15.9914 4.213524 -13.04145 -1e-06 -0.0 14.67867 0.0 0.0 44.48403 -38.20135 2.359717 11.8338 -41.12209 0.0 0.0 -41.12209 0.0 0.0 1.607976 -0.081748 -0.054387 -5.005416 0.0 0.0 -5.003379 0.0 0.0 1.577437 1.378345 4.165629 -5.010535 0.0 0.0 -5.010535 0.0 0.0 0.399872 2.558528 8.254551 -5.997952 0.0 0.0 -5.996794 0.0 0.0 1.4059887797589332 -0.23803850129395235 -3.1791271809087873 80.13151586804128 -20.23323336854212 39.53128385170244 26.2693626400304 -5.159074685768193 70.91965984985733 7.2393788543125295 -24.416254952206938 11.534969229400124 9.614134 -4.896591 22.12875 0.0 0.0 3.231176 0.0 0.0 -26.57245 43.9976 2.163135 -12.06773 46.33478 0.0 0.0 46.32685 0.0 0.0 55.90439 1.784505 -1.571804 56.82001 0.0 0.0 56.82001 0.0 0.0 55.14419 -2.290141 -1.147244 56.19355 0.0 0.0 56.1975 0.0 0.0 55.49405 -4.166969 -0.018178 56.67761 0.0 0.0 56.67761 0.0 0.0 -3.8388952749088996 9.039315667891348 24.847484760122104 -1.1928318418690422 0.574019616603928 8.950244383637335 -1.4589432415586037 -0.2741864823643781 -6.1319196520642745 0.0024901629831142105 0.0957573272537101 0.0008063654714866563 -6.705028067688594 4.803210181871899 14.538768630537284 -1.9837637253945275 12.285533006730523 -17.884098286441112 5.579764798411069 -6.770634413616724 16.72682871726754 0.000594787196892834 0.1077608512260585 -0.0008364841188395029
2.6298406539373973 98.50872802734375 0.3797892894208473 8.075341527373562 -6.7899144855280875 6.879018617895727 0.7761242345587652 5.154183135176732 -6.393335950039978 2.237041612236189 9.892201189521922 -13.045939668585872 0.5143385025684837 4.287455224607615 0.14003441653146367 -6.45668046211103 -4.846659976587415 -29.101826863976456 -3.309076139445627 -0.5788308113181038 3.521232369178128 -62.22252336489444 29.50764905028729 25.97077218326631 -9.292116039763528 6.571527467724318 -75.47650612513515 -2.737185663210397 -2.6627096649962816 23.674109083685927 -15.9914 4.213524 -13.04145 -1e-06 -0.0 14.67867 0.0 0.0 44.48403 -38.20135 2.359717 11.8338 -41.12209 0.0 0.0 -41.12209 0.0 0.0 1.607976 -0.081748 -0.054387 -5.005416 0.0 0.0 -5.003379 0.0 0.0 1.577437 1.378345 4.165629 -5.010535 0.0 0.0 -5.010535 0.0 0.0 0.399872 2.558528 8.254551 -5.997952 0.0 0.0 -5.996794 0.0 0.0 1.0987811757031327 -0.2616270691494342 -4.084867160585397 82.40966838943686 -20.941419395697693 37.93886714853089 30.921541536536132 -2.5807689693731133 76.80110900527407 -1.213817811579016 -27.447041258861688 5.677776474382804 9.614134 -4.896591 22.12875 0.0 0.0 3.231176 0.0 0.0 -26.57245 43.9976 2.163135 -12.06773 46.33478 0.0 0.0 46.32685 0.0 0.0 55.90439 1.784505 -1.571804 56.82001 0.0 0.0 56.82001 0.0 0.0 55.14419 -2.290141 -1.147244 56.19355 0.0 0.0 56.1975 0.0 0.0 55.49405 -4.166969 -0.018178 56.67761 0.0 0.0 56.67761 0.0 0.0 -5.81989068409642 9.201737008844992 21.773352180988624 -1.2904785567485832 2.6412823687989357 9.085195189679627 0.376569724262017 -1.126534924289867 -4.27364343266256 0.0011548321697817385 0.08274664014435824 -0.000524034633245535 -10.230948365086297 11.306918886736128 9.5143300358395 -1.1982490437952944 11.309454777234786 -18.100355055263762 7.3661566451719835 -6.904728695090003 17.053125732308413 -0.0007622760310843225 0.14427609155745968 0.002582585704426118
2.8476817723821823 98.25486755371094 0.21739511819220494 9.046048699703574 -7.205242368596758 8.907696811564044 1.2629824157454042 5.097367554789764 -6.576130869031881 3.021437800695504 9.67944394581218 -13.686411088043856 0.637602686542541 3.8935619687287653 0.18932954257790166 -8.22687997774111 -2.9314813701767957 -26.45504737172429 -2.9343055906591067 -0.6973871853204179 3.0506551095213825 -62.636660048954674 28.987880605812304 25.43071355907369 -5.009506104101164 8.0863602126984 -77.60465030186393 -3.9508917735973292 -1.2839239391431276 19.89714209338699 -15.9914 4.213524 -13.04145 -1e-06 -0.0 14.67867 0.0 0.0 44.48403 -38.20135 2.359717 11.8338 -41.12209 0.0 0.0 -41.12209 0.0 0.0 1.607976 -0.081748 -0.054387 -5.005416 0.0 0.0 -5.003379 0.0 0.0 1.577437 1.378345 4.165629 -5.010535 0.0 0.0 -5.010535 0.0 0.0 0.399872 2.558528 8.254551 -5.997952 0.0 0.0 -5.996794 0.0 0.0 1.902452432770577 -0.4114333991580498 -4.403238306420289 84.83254986025587 -19.22230859690333 36.760107476133214 32.93135451212022 2.552749680024385 85.9685360931892 -2.65070618254009 -29.227514575413625 5.204046791231051 9.614134 -4.896591 22.12875 0.0 0.0 3.231176 0.0 0.0 -26.57245 43.9976 2.163135 -12.06773 46.33478 0.0 0.0 46.32685 0.0 0.0 55.90439 1.784505 -1.571804 56.82001 0.0 0.0 56.82001 0.0 0.0 55.14419 -2.290141 -1.147244 56.19355 0.0 0.0 56.1975 0.0 0.0 55.49405 -4.166969 -0.018178 56.67761 0.0 0.0 56.67761 0.0 0.0 -7.587446849420895 10.448156855038278 22.389387207118343 -1.056742619015155 1.5117958335111796 9.196867415544753 0.7494489856947456 0.9602942712657495 -5.339614445374418 0.0031045007944052656 0.16004934164852724 0.00422175516169857 -9.983711367200266 11.068782006187108 7.925842900473806 -1.5247678300704184 13.294146512849926 -18.204639874068743 7.803603772932722 -8.426461558404599 17.988451032816748 0.004390826947197319 0.09247433803728271 0.005057521272526102
2.7814764995945747 98.52399444580078 -0.21012850778606657 10.956240624396882 -9.103887392311794 14.281562639861567 1.5731971048709292 5.628350937076429 -6.280123882427491 3.758882723457627 11.24905764219333 -12.784039513700954 0.29297731715444447 3.8277939179130764 -0.007895932176193823 -12.055433864501925 -1.771406851272074 -21.309670801742936 -4.301715826944525 -0.7768380587280224 4.107869700815278 -61.497984647985334 30.58045032125578 18.753998235448282 -5.491143617969584 7.327864233847286 -71.18530495850422 -8.839040701947162 -1.8057641817862258 14.458387118460067 -15.9914 4.213524 -13.04145 -1e-06 -0.0 14.67867 0.0 0.0 44.48403 -38.20135 2.359717 11.8338 -41.12209 0.0 0.0 -41.12209 0.0 0.0 1.607976 -0.081748 -0.054387 -5.005416 0.0 0.0 -5.003379 0.0 0.0 1.577437 1.378345 4.165629 -5.010535 0.0 0.0 -5.010535 0.0 0.0 0.399872 2.558528 8.254551 -5.997952 0.0 0.0 -5.996794 0.0 0.0 3.049241729371749 -0.9067941334114451 -5.1254931779623485 91.36347580592903 -12.998989932020915 39.19052286201681 34.471997881398295 2.4576572692158174 86.91490174834681 -7.992682402468256 -27.919367025329787 6.623607214686554 9.614134 -4.896591 22.12875 0.0 0.0 3.231176 0.0 0.0 -26.57245 43.9976 2.163135 -12.06773 46.33478 0.0 0.0 46.32685 0.0 0.0 55.90439 1.784505 -1.571804 56.82001 0.0 0.0 56.82001 0.0 0.0 55.14419 -2.290141 -1.147244 56.19355 0.0 0.0 56.1975 0.0 0.0 55.49405 -4.166969 -0.018178 56.67761 0.0 0.0 56.67761 0.0 0.0 -6.29908877989863 6.447321343806876 18.595658872141342 -0.6688041951870757 10.927327217497925 8.69064974668348 0.7039372027978232 -0.04210839591613486 -5.123793863368507 0.00510915266345723 0.17808622733266882 0.0011834978573752504 -10.593697754815757 18.027576886945194 5.412756498959915 -0.9713046611509172 13.761796697676425 -16.43873397929915 7.243544386757236 -9.430417505304856 17.097754755305804 0.0028246352340439264 0.16851235278976967 -0.001806978170526107
